<svg width="22" height="22" viewBox="0 0 22 22" fill="none" xmlns="http://www.w3.org/2000/svg">
<path d="M20.0862 5.82764H8.64896L3.26231 0.547728C2.51371 -0.186575 1.30131 -0.181755 0.55597 0.557368C-0.189374 1.2981 -0.184492 2.49355 0.565734 3.22946L5.94587 8.50294V20.1104C5.94587 21.1532 6.80188 22 7.85968 22C8.91748 22 9.77349 21.1548 9.77349 20.1104V18.2305H13.2545C14.3106 18.2305 15.1683 17.3853 15.1683 16.3409C15.1683 15.2964 14.3123 14.4513 13.2545 14.4513H9.77349V9.6052H20.0862C21.1424 9.6052 22 8.76003 22 7.71561C22 6.6712 21.144 5.82603 20.0862 5.82603V5.82764Z" fill="white"/>
</svg>
